/* XPM */
static char *_007[] = {
/* columns rows colors chars-per-pixel */
"64 64 9 1 ",
"  c None",
". c black",
"X c gray39",
"o c gray45",
"O c gray58",
"+ c gray74",
"@ c gray77",
"# c #FEFEFE",
"$ c white",
/* pixels */
" ##                                                          ## ",
" ##                                                          ## ",
" ##o........................................................X## ",
" ##o........................................................X## ",
" ##o........................................................X## ",
" ##o........................................................X## ",
" ##o........................................................X## ",
" ##o........................................................X## ",
" ##o........................................................X## ",
" ##o........................................................X## ",
" ##o........................................................X## ",
" ##o........................................................X## ",
" ##o........................................................X## ",
" ##o........................................................X## ",
" ##o........................................................X## ",
" ##o........................................................X## ",
" ##o........................................................X## ",
" ##o........................................................X## ",
" ##o........................................................X## ",
" ##o........................................................X## ",
" ##o........................................................X## ",
" ##o........................................................X## ",
" ##o........................................................X## ",
" ##o........................................................X## ",
" ##o........................................................X## ",
" ##o........................................................X## ",
" ##o........................................................X## ",
" ##o........................................................X## ",
" ##o........................................................X## ",
" ##o........................................................X## ",
" ##o........................................................X## ",
" ##o........................................................X## ",
" ##o........................................................X## ",
" ##o........................................................X## ",
" ##o........................................................X## ",
" ##o........................................................X## ",
" ##o........................................................X## ",
" ##o........................................................X## ",
" ##o........................................................X## ",
" ##o........................................................X## ",
" ##o........................................................X## ",
" ##o........................................................X## ",
" ##o........................................................X## ",
" ##o........................................................X## ",
" ##o........................................................X## ",
" ##o........................................................X## ",
" ##o........................................................X## ",
" ##o........................................................X## ",
" ##o........................................................X## ",
" ##o........................................................X## ",
" ##o........................................................X## ",
" ##o........................................................X## ",
" ##o........................................................X## ",
" ##o........................................................X## ",
" ##o........................................................X## ",
" ##o........................................................X## ",
" ##o........................................................X## ",
" ##o........................................................X## ",
" ##o........................................................X## ",
" ##o........................................................X## ",
" ##@OOOOOOOOOOOOOOOOOOOOOOOOOOOOOOOOOOOOOOOOOOOOOOOOOOOOOOOO+## ",
" ############################################################## ",
" ############################################################## ",
"                                                                "
};
