/* XPM */
static char *_010[] = {
/* columns rows colors chars-per-pixel */
"64 64 10 1 ",
"  c None",
". c black",
"X c #414141",
"o c gray29",
"O c #727272",
"+ c gray58",
"@ c #9F9F9F",
"# c #AFAFAF",
"$ c #FEFEFE",
"% c white",
/* pixels */
" $$$$$$$$$$$$$$$$$$$$$$$$$$$$$$$$$$$$$$$$$$$$$$$$$$$$$$$$$$$$$$ ",
"$$$$$$$$$$$$$$$$$$$$$$$$$$$$$$$$$$$$$$$$$$$$$$$$$$$$$$$$$$$$$$$ ",
"$$$$$$$$$$$$$$$$$$$$$$$$$$$$$$$$$$$$$$$$$$$$$$$$$$$$$$$$$$$$$$$ ",
"$$$OXXXXXXXXXXXXXXXXXXXXXXXXXXXXXXXXXXXXXXXXXXXXXXXXXXXXXXXX#$$ ",
"$$$X........................................................+$$ ",
"$$$X........................................................+$$ ",
"$$$X........................................................+$$ ",
"$$$X........................................................+$$ ",
"$$$X........................................................+$$ ",
"$$$X........................................................+$$ ",
"$$$X........................................................+$$ ",
"$$$X........................................................+$$ ",
"$$$X........................................................+$$ ",
"$$$X........................................................+$$ ",
"$$$X........................................................+$$ ",
"$$$X........................................................+$$ ",
"$$$X........................................................+$$ ",
"$$$X........................................................+$$ ",
"$$$X........................................................+$$ ",
"$$$X........................................................+$$ ",
"$$$X........................................................+$$ ",
"$$$X........................................................+$$ ",
"$$$X........................................................+$$ ",
"$$$X........................................................+$$ ",
"$$$X........................................................+$$ ",
"$$$X........................................................+$$ ",
"$$$X........................................................+$$ ",
"$$$X........................................................+$$ ",
"$$$X........................................................+$$ ",
"$$$X........................................................+$$ ",
"$$$X........................................................+$$ ",
"$$$X........................................................+$$ ",
"$$$X........................................................+$$ ",
"$$$X........................................................+$$ ",
"$$$X........................................................+$$ ",
"$$$X........................................................+$$ ",
"$$$X........................................................+$$ ",
"$$$X........................................................+$$ ",
"$$$X........................................................+$$ ",
"$$$X........................................................+$$ ",
"$$$X........................................................+$$ ",
"$$$X........................................................+$$ ",
"$$$X........................................................+$$ ",
"$$$X........................................................+$$ ",
"$$$X........................................................+$$ ",
"$$$X........................................................+$$ ",
"$$$X........................................................+$$ ",
"$$$X........................................................+$$ ",
"$$$X........................................................+$$ ",
"$$$X........................................................+$$ ",
"$$$X........................................................+$$ ",
"$$$X........................................................+$$ ",
"$$$X........................................................+$$ ",
"$$$X........................................................+$$ ",
"$$$X........................................................+$$ ",
"$$$X........................................................+$$ ",
"$$$X........................................................+$$ ",
"$$$X........................................................+$$ ",
"$$$X........................................................+$$ ",
"$$$X........................................................+$$ ",
"$$$X........................................................+$$ ",
"$$$o........................................................@$$ ",
"$$$                                                         $$$ ",
"                                                                "
};
