/* XPM */
static char *_001[] = {
/* columns rows colors chars-per-pixel */
"62 64 5 1 ",
"  c None",
". c black",
"X c #626262",
"o c DimGray",
"O c white",
/* pixels */
"                                                              ",
"                                                           OO ",
"..........................................................oOO ",
"..........................................................XOO ",
"..........................................................XOO ",
"..........................................................XOO ",
"..........................................................XOO ",
"..........................................................XOO ",
"..........................................................XOO ",
"..........................................................XOO ",
"..........................................................XOO ",
"..........................................................XOO ",
"..........................................................XOO ",
"..........................................................XOO ",
"..........................................................XOO ",
"..........................................................XOO ",
"..........................................................XOO ",
"..........................................................XOO ",
"..........................................................XOO ",
"..........................................................XOO ",
"..........................................................XOO ",
"..........................................................XOO ",
"..........................................................XOO ",
"..........................................................XOO ",
"..........................................................XOO ",
"..........................................................XOO ",
"..........................................................XOO ",
"..........................................................XOO ",
"..........................................................XOO ",
"..........................................................XOO ",
"..........................................................XOO ",
"..........................................................XOO ",
"..........................................................XOO ",
"..........................................................XOO ",
"..........................................................XOO ",
"..........................................................XOO ",
"..........................................................XOO ",
"..........................................................XOO ",
"..........................................................XOO ",
"..........................................................XOO ",
"..........................................................XOO ",
"..........................................................XOO ",
"..........................................................XOO ",
"..........................................................XOO ",
"..........................................................XOO ",
"..........................................................XOO ",
"..........................................................XOO ",
"..........................................................XOO ",
"..........................................................XOO ",
"..........................................................XOO ",
"..........................................................XOO ",
"..........................................................XOO ",
"..........................................................XOO ",
"..........................................................XOO ",
"..........................................................XOO ",
"..........................................................XOO ",
"..........................................................XOO ",
"..........................................................XOO ",
"..........................................................XOO ",
"..........................................................XOO ",
"..........................................................XOO ",
"..........................................................XOO ",
"                                                           OO ",
"                                                              "
};
