/* XPM */
static char *_004[] = {
/* columns rows colors chars-per-pixel */
"64 64 9 1 ",
"  c None",
". c black",
"X c gray39",
"o c gray58",
"O c #9B9B9B",
"+ c gray74",
"@ c gray96",
"# c #FEFEFE",
"$ c white",
/* pixels */
"                                                             $$ ",
"                                                             $$ ",
"  ..........................................................X$$ ",
"  ..........................................................X$$ ",
"  ..........................................................X$$ ",
"  ..........................................................X$$ ",
"  ..........................................................X$$ ",
"  ..........................................................X$$ ",
"  ..........................................................X$$ ",
"  ..........................................................X$$ ",
"  ..........................................................X$$ ",
"  ..........................................................X$$ ",
"  ..........................................................X$$ ",
"  ..........................................................X$$ ",
"  ..........................................................X$$ ",
"  ..........................................................X$$ ",
"  ..........................................................X$$ ",
"  ..........................................................X$$ ",
"  ..........................................................X$$ ",
"  ..........................................................X$$ ",
"  ..........................................................X$$ ",
"  ..........................................................X$$ ",
"  ..........................................................X$$ ",
"  ..........................................................X$$ ",
"  ..........................................................X$$ ",
"  ..........................................................X$$ ",
"  ..........................................................X$$ ",
"  ..........................................................X$$ ",
"  ..........................................................X$$ ",
"  ..........................................................X$$ ",
"  ..........................................................X$$ ",
"  ..........................................................X$$ ",
"  ..........................................................X$$ ",
"  ..........................................................X$$ ",
"  ..........................................................X$$ ",
"  ..........................................................X$$ ",
"  ..........................................................X$$ ",
"  ..........................................................X$$ ",
"  ..........................................................X$$ ",
"  ..........................................................X$$ ",
"  ..........................................................X$$ ",
"  ..........................................................X$$ ",
"  ..........................................................X$$ ",
"  ..........................................................X$$ ",
"  ..........................................................X$$ ",
"  ..........................................................X$$ ",
"  ..........................................................X$$ ",
"  ..........................................................X$$ ",
"  ..........................................................X$$ ",
"  ..........................................................X$$ ",
"  ..........................................................X$$ ",
"  ..........................................................X$$ ",
"  ..........................................................X$$ ",
"  ..........................................................X$$ ",
"  ..........................................................X$$ ",
"  ..........................................................X$$ ",
"  ..........................................................X$$ ",
"  ..........................................................X$$ ",
"  ..........................................................X$$ ",
"  ..........................................................X$$ ",
" @Oooooooooooooooooooooooooooooooooooooooooooooooooooooooooo+$$ ",
" $$$$$$$$$$$$$$$$$$$$$$$$$$$$$$$$$$$$$$$$$$$$$$$$$$$$$$$$$$$$$$ ",
" $$$$$$$$$$$$$$$$$$$$$$$$$$$$$$$$$$$$$$$$$$$$$$$$$$$$$$$$$$$$$$ ",
"                                                                "
};
