/* XPM */
static char *_000[] = {
/* columns rows colors chars-per-pixel */
"32 32 9 1 ",
"  c None",
". c #FE0000",
"X c red",
"o c #FF3720",
"O c #FF6D3F",
"+ c #FF6D41",
"@ c #FE9156",
"# c #FFD981",
"$ c #FFDA81",
/* pixels */
"                                ",
"                #               ",
"               ###              ",
"      XXXXX   ###OXXXXX         ",
"     XXXXXXX ### XXXXXXX        ",
"    XXXXXXXXX@#@XXXXXXXXX       ",
"   XXXXXXXXXX+#+XXXXXXXXXX      ",
"  XXXXXXXXXXXo+oXXXXXXXXXXX     ",
" XXXXXXXXXXXXXXXXXXXXXXXXXXX    ",
" XXXXXXXXXXXXXXXXXXXXXXXXXXX    ",
" XXXXXXXXXXXXXXXXXXXXXXXXXXX    ",
" XXXXXXXXXXXXXXXXXXXXXXXXXXX    ",
" XXXXXXXXXXXXXXXXXXXXXXXXXXX    ",
" XXXXXXXXXXXXXXXXXXXXXXXXXXX    ",
" XXXXXXXXXXXXXXXXXXXXXXXXXXX    ",
" XXXXXXXXXXXXXXXXXXXXXXXXXXX    ",
" XXXXXXXXXXXXXXXXXXXXXXXXXXX    ",
" XXXXXXXXXXXXXXXXXXXXXXXXXXX    ",
" XXXXXXXXXXXXXXXXXXXXXXXXXXX    ",
"  XXXXXXXXXXXXXXXXXXXXXXXXX     ",
"   XXXXXXXXXXXXXXXXXXXXXXX      ",
"   XXXXXXXXXXXXXXXXXXXXXXX      ",
"   XXXXXXXXXXXXXXXXXXXXXXX      ",
"    XXXXXXXXXXXXXXXXXXXXX       ",
"     XXXXXXXXXXXXXXXXXXX        ",
"      XXXXXXXXXXXXXXXXX         ",
"       XXXXXXX XXXXXXX          ",
"        XXXXX   XXXXX           ",
"                                ",
"                                ",
"                                ",
"                                "
};
