/* XPM */
static char *_000[] = {
/* columns rows colors chars-per-pixel */
"32 32 2 1 ",
"  c black",
". c #B97A57",
/* pixels */
"................................",
"................................",
"................................",
"................................",
"................................",
"................................",
"................................",
"................................",
"................................",
"................................",
"................................",
"................................",
"................................",
"................................",
"..           ...................",
"..           ...................",
"..           ...................",
"..           ...................",
"................................",
"................................",
"................................",
"................................",
"................................",
"................................",
"................................",
"................................",
"................................",
"................................",
"................................",
"................................",
"................................",
"................................"
};
