/* XPM */
static char *_000[] = {
/* columns rows colors chars-per-pixel */
"32 32 7 1 ",
"  c None",
". c black",
"X c gray76",
"o c gray79",
"O c gray95",
"+ c #FBFBFB",
"@ c #FEFEFE",
/* pixels */
"@+                              ",
"@X............................. ",
"@X............................. ",
"@X............................. ",
"@X............................. ",
"@X............................. ",
"@X............................. ",
"@X............................. ",
"@X............................. ",
"@X............................. ",
"@X............................. ",
"@X............................. ",
"@X............................. ",
"@X............................. ",
"@X............................. ",
"@X............................. ",
"@X............................. ",
"@X............................. ",
"@X............................. ",
"@X............................. ",
"@X............................. ",
"@X............................. ",
"@X............................. ",
"@X............................. ",
"@X............................. ",
"@X............................. ",
"@X............................. ",
"@X............................. ",
"@X............................. ",
"@X............................. ",
"@Oooooooooooooooooooooooooooooo@",
" @@@@@@@@@@@@@@@@@@@@@@@@@@@@@@@"
};
