/* XPM */
static char *_000[] = {
/* columns rows colors chars-per-pixel */
"32 32 8 1 ",
"  c None",
". c black",
"X c gray68",
"o c gray79",
"O c gray80",
"+ c #EEEEEE",
"@ c gray97",
"# c #FEFEFE",
/* pixels */
"################################",
"@XXXXXXXXXXXXXXXXXXXXXXXXXXXXX+#",
" .............................o#",
" .............................o#",
" .............................o#",
" .............................o#",
" .............................o#",
" .............................o#",
" .............................o#",
" .............................o#",
" .............................o#",
" .............................o#",
" .............................o#",
" .............................o#",
" .............................o#",
" .............................o#",
" .............................o#",
" .............................o#",
" .............................o#",
" .............................o#",
" .............................o#",
" .............................o#",
" .............................o#",
" .............................o#",
" .............................o#",
" .............................o#",
" .............................o#",
" .............................o#",
" .............................o#",
" .............................o#",
" .............................O#",
"                              # "
};
