/* XPM */
static char *_000[] = {
/* columns rows colors chars-per-pixel */
"32 32 8 1 ",
"  c None",
". c black",
"X c gray68",
"o c gray69",
"O c gray79",
"+ c #CBCBCB",
"@ c #FDFDFD",
"# c #FEFEFE",
/* pixels */
"################################",
" oXXXXXXXXXXXXXXXXXXXXXXXXXXXXX#",
" .............................. ",
" .............................. ",
" .............................. ",
" .............................. ",
" .............................. ",
" .............................. ",
" .............................. ",
" .............................. ",
" .............................. ",
" .............................. ",
" .............................. ",
" .............................. ",
" .............................. ",
" .............................. ",
" .............................. ",
" .............................. ",
" .............................. ",
" .............................. ",
" .............................. ",
" .............................. ",
" .............................. ",
" .............................. ",
" .............................. ",
" .............................. ",
" .............................. ",
" .............................. ",
" .............................. ",
" .............................. ",
"#++++++++++++++++++++++++++++++#",
" ###############################"
};
