/* XPM */
static char *_000[] = {
/* columns rows colors chars-per-pixel */
"31 32 6 1 ",
"  c None",
". c black",
"X c gray68",
"o c #B1B1B1",
"O c #F9F9F9",
"+ c #FEFEFE",
/* pixels */
"+O                             ",
"+X.............................",
"+X.............................",
"+X.............................",
"+X.............................",
"+X.............................",
"+X.............................",
"+X.............................",
"+X.............................",
"+X.............................",
"+X.............................",
"+X.............................",
"+X.............................",
"+X.............................",
"+X.............................",
"+X.............................",
"+X.............................",
"+X.............................",
"+X.............................",
"+X.............................",
"+X.............................",
"+X.............................",
"+X.............................",
"+X.............................",
"+X.............................",
"+X.............................",
"+X.............................",
"+X.............................",
"+X.............................",
"+X.............................",
"+o.............................",
"+                              "
};
