/* XPM */
static char *_000[] = {
/* columns rows colors chars-per-pixel */
"32 32 9 1 ",
"  c None",
". c black",
"X c gray68",
"o c #B1B1B1",
"O c gray79",
"+ c gray80",
"@ c gray97",
"# c #FBFBFB",
"$ c #FEFEFE",
/* pixels */
"$@                            #$",
"$X............................O$",
"$X............................O$",
"$X............................O$",
"$X............................O$",
"$X............................O$",
"$X............................O$",
"$X............................O$",
"$X............................O$",
"$X............................O$",
"$X............................O$",
"$X............................O$",
"$X............................O$",
"$X............................O$",
"$X............................O$",
"$X............................O$",
"$X............................O$",
"$X............................O$",
"$X............................O$",
"$X............................O$",
"$X............................O$",
"$X............................O$",
"$X............................O$",
"$X............................O$",
"$X............................O$",
"$X............................O$",
"$X............................O$",
"$X............................O$",
"$X............................O$",
"$X............................O$",
"$o............................+$",
"$                             $ "
};
