/* XPM */
static char *_000[] = {
/* columns rows colors chars-per-pixel */
"32 32 10 1 ",
"  c None",
". c black",
"X c #B1B1B1",
"o c gray76",
"O c gray79",
"+ c #EFEFEF",
"@ c gray95",
"# c #F9F9F9",
"$ c #FBFBFB",
"% c #FEFEFE",
/* pixels */
"%$                            $%",
"%o............................X%",
"%o............................X%",
"%o............................X%",
"%o............................X%",
"%o............................X%",
"%o............................X%",
"%o............................X%",
"%o............................X%",
"%o............................X%",
"%o............................X%",
"%o............................X%",
"%o............................X%",
"%o............................X%",
"%o............................X%",
"%o............................X%",
"%o............................X%",
"%o............................X%",
"%o............................X%",
"%o............................X%",
"%o............................X%",
"%o............................X%",
"%o............................X%",
"%o............................X%",
"%o............................X%",
"%o............................X%",
"%o............................X%",
"%o............................X%",
"%o............................X%",
"%o............................X%",
"%@OOOOOOOOOOOOOOOOOOOOOOOOOOOO+%",
" %%%%%%%%%%%%%%%%%%%%%%%%%%%%%%%"
};
