/* XPM */
static char *_000[] = {
/* columns rows colors chars-per-pixel */
"32 31 6 1 ",
"  c None",
". c black",
"X c gray69",
"o c gray70",
"O c #F9F9F9",
"+ c #FEFEFE",
/* pixels */
" .............................. ",
" .............................. ",
" .............................. ",
" .............................. ",
" .............................. ",
" .............................. ",
" .............................. ",
" .............................. ",
" .............................. ",
" .............................. ",
" .............................. ",
" .............................. ",
" .............................. ",
" .............................. ",
" .............................. ",
" .............................. ",
" .............................. ",
" .............................. ",
" .............................. ",
" .............................. ",
" .............................. ",
" .............................. ",
" .............................. ",
" .............................. ",
" .............................. ",
" .............................. ",
" .............................. ",
" .............................. ",
" .............................. ",
"OXXXXXXXXXXXXXXXXXXXXXXXXXXXXXX ",
"++++++++++++++++++++++++++++++++"
};
