/* XPM */
static char *_001[] = {
/* columns rows colors chars-per-pixel */
"16 16 3 1 ",
"  c None",
". c #001EFF",
"X c white",
/* pixels */
"     ......     ",
"   ..........   ",
"  ............  ",
" .............. ",
" .............. ",
" ...XX....XX... ",
"....XX....XX....",
"................",
"................",
"................",
"...XX..XX..XX...",
"..X..XX..XX..X..",
"................",
"................",
".. ....  .... ..",
".   ..    ..   ."
};
