/* XPM */
static char *_004[] = {
/* columns rows colors chars-per-pixel */
"97 100 5 1 ",
"  c None",
". c black",
"X c #3F3F3F",
"o c #4E4E4E",
"O c white",
/* pixels */
"                                                                                                 ",
"                                                                                            OOOO ",
"                                                                                            OOOO ",
"...........................................................................................oOOOO ",
"...........................................................................................XOOOO ",
"...........................................................................................XOOOO ",
"...........................................................................................XOOOO ",
"...........................................................................................XOOOO ",
"...........................................................................................XOOOO ",
"...........................................................................................XOOOO ",
"...........................................................................................XOOOO ",
"...........................................................................................XOOOO ",
"...........................................................................................XOOOO ",
"...........................................................................................XOOOO ",
"...........................................................................................XOOOO ",
"...........................................................................................XOOOO ",
"...........................................................................................XOOOO ",
"...........................................................................................XOOOO ",
"...........................................................................................XOOOO ",
"...........................................................................................XOOOO ",
"...........................................................................................XOOOO ",
"...........................................................................................XOOOO ",
"...........................................................................................XOOOO ",
"...........................................................................................XOOOO ",
"...........................................................................................XOOOO ",
"...........................................................................................XOOOO ",
"...........................................................................................XOOOO ",
"...........................................................................................XOOOO ",
"...........................................................................................XOOOO ",
"...........................................................................................XOOOO ",
"...........................................................................................XOOOO ",
"...........................................................................................XOOOO ",
"...........................................................................................XOOOO ",
"...........................................................................................XOOOO ",
"...........................................................................................XOOOO ",
"...........................................................................................XOOOO ",
"...........................................................................................XOOOO ",
"...........................................................................................XOOOO ",
"...........................................................................................XOOOO ",
"...........................................................................................XOOOO ",
"...........................................................................................XOOOO ",
"...........................................................................................XOOOO ",
"...........................................................................................XOOOO ",
"...........................................................................................XOOOO ",
"...........................................................................................XOOOO ",
"...........................................................................................XOOOO ",
"...........................................................................................XOOOO ",
"...........................................................................................XOOOO ",
"...........................................................................................XOOOO ",
"...........................................................................................XOOOO ",
"...........................................................................................XOOOO ",
"...........................................................................................XOOOO ",
"...........................................................................................XOOOO ",
"...........................................................................................XOOOO ",
"...........................................................................................XOOOO ",
"...........................................................................................XOOOO ",
"...........................................................................................XOOOO ",
"...........................................................................................XOOOO ",
"...........................................................................................XOOOO ",
"...........................................................................................XOOOO ",
"...........................................................................................XOOOO ",
"...........................................................................................XOOOO ",
"...........................................................................................XOOOO ",
"...........................................................................................XOOOO ",
"...........................................................................................XOOOO ",
"...........................................................................................XOOOO ",
"...........................................................................................XOOOO ",
"...........................................................................................XOOOO ",
"...........................................................................................XOOOO ",
"...........................................................................................XOOOO ",
"...........................................................................................XOOOO ",
"...........................................................................................XOOOO ",
"...........................................................................................XOOOO ",
"...........................................................................................XOOOO ",
"...........................................................................................XOOOO ",
"...........................................................................................XOOOO ",
"...........................................................................................XOOOO ",
"...........................................................................................XOOOO ",
"...........................................................................................XOOOO ",
"...........................................................................................XOOOO ",
"...........................................................................................XOOOO ",
"...........................................................................................XOOOO ",
"...........................................................................................XOOOO ",
"...........................................................................................XOOOO ",
"...........................................................................................XOOOO ",
"...........................................................................................XOOOO ",
"...........................................................................................XOOOO ",
"...........................................................................................XOOOO ",
"...........................................................................................XOOOO ",
"...........................................................................................XOOOO ",
"...........................................................................................XOOOO ",
"...........................................................................................XOOOO ",
"...........................................................................................XOOOO ",
"...........................................................................................XOOOO ",
"...........................................................................................XOOOO ",
"...........................................................................................XOOOO ",
"...........................................................................................XOOOO ",
"                                                                                            OOOO ",
"                                                                                            OOOO ",
"                                                                                                 "
};
