/* XPM */
static char *_001[] = {
/* columns rows colors chars-per-pixel */
"100 100 7 1 ",
"  c None",
". c black",
"X c #3F3F3F",
"o c #4E4E4E",
"O c gray50",
"+ c gray57",
"@ c white",
/* pixels */
"                                                                                                    ",
" @@@@@@@@@@@@@@@@@@@@@@@@@@@@@@@@@@@@@@@@@@@@@@@@@@@@@@@@@@@@@@@@@@@@@@@@@@@@@@@@@@@@@@@@@@@@@@@@@@ ",
" @@@@@@@@@@@@@@@@@@@@@@@@@@@@@@@@@@@@@@@@@@@@@@@@@@@@@@@@@@@@@@@@@@@@@@@@@@@@@@@@@@@@@@@@@@@@@@@@@@ ",
" @@@@@@@@@@@@@@@@@@@@@@@@@@@@@@@@@@@@@@@@@@@@@@@@@@@@@@@@@@@@@@@@@@@@@@@@@@@@@@@@@@@@@@@@@@@@@@@@@@ ",
" @@@@@@@@@@@@@@@@@@@@@@@@@@@@@@@@@@@@@@@@@@@@@@@@@@@@@@@@@@@@@@@@@@@@@@@@@@@@@@@@@@@@@@@@@@@@@@@@@@ ",
"   oXXXXXXXXXXXXXXXXXXXXXXXXXXXXXXXXXXXXXXXXXXXXXXXXXXXXXXXXXXXXXXXXXXXXXXXXXXXXXXXXXXXXXXXXXXXXX   ",
"   ..............................................................................................   ",
"   ..............................................................................................   ",
"   ..............................................................................................   ",
"   ..............................................................................................   ",
"   ..............................................................................................   ",
"   ..............................................................................................   ",
"   ..............................................................................................   ",
"   ..............................................................................................   ",
"   ..............................................................................................   ",
"   ..............................................................................................   ",
"   ..............................................................................................   ",
"   ..............................................................................................   ",
"   ..............................................................................................   ",
"   ..............................................................................................   ",
"   ..............................................................................................   ",
"   ..............................................................................................   ",
"   ..............................................................................................   ",
"   ..............................................................................................   ",
"   ..............................................................................................   ",
"   ..............................................................................................   ",
"   ..............................................................................................   ",
"   ..............................................................................................   ",
"   ..............................................................................................   ",
"   ..............................................................................................   ",
"   ..............................................................................................   ",
"   ..............................................................................................   ",
"   ..............................................................................................   ",
"   ..............................................................................................   ",
"   ..............................................................................................   ",
"   ..............................................................................................   ",
"   ..............................................................................................   ",
"   ..............................................................................................   ",
"   ..............................................................................................   ",
"   ..............................................................................................   ",
"   ..............................................................................................   ",
"   ..............................................................................................   ",
"   ..............................................................................................   ",
"   ..............................................................................................   ",
"   ..............................................................................................   ",
"   ..............................................................................................   ",
"   ..............................................................................................   ",
"   ..............................................................................................   ",
"   ..............................................................................................   ",
"   ..............................................................................................   ",
"   ..............................................................................................   ",
"   ..............................................................................................   ",
"   ..............................................................................................   ",
"   ..............................................................................................   ",
"   ..............................................................................................   ",
"   ..............................................................................................   ",
"   ..............................................................................................   ",
"   ..............................................................................................   ",
"   ..............................................................................................   ",
"   ..............................................................................................   ",
"   ..............................................................................................   ",
"   ..............................................................................................   ",
"   ..............................................................................................   ",
"   ..............................................................................................   ",
"   ..............................................................................................   ",
"   ..............................................................................................   ",
"   ..............................................................................................   ",
"   ..............................................................................................   ",
"   ..............................................................................................   ",
"   ..............................................................................................   ",
"   ..............................................................................................   ",
"   ..............................................................................................   ",
"   ..............................................................................................   ",
"   ..............................................................................................   ",
"   ..............................................................................................   ",
"   ..............................................................................................   ",
"   ..............................................................................................   ",
"   ..............................................................................................   ",
"   ..............................................................................................   ",
"   ..............................................................................................   ",
"   ..............................................................................................   ",
"   ..............................................................................................   ",
"   ..............................................................................................   ",
"   ..............................................................................................   ",
"   ..............................................................................................   ",
"   ..............................................................................................   ",
"   ..............................................................................................   ",
"   ..............................................................................................   ",
"   ..............................................................................................   ",
"   ..............................................................................................   ",
"   ..............................................................................................   ",
"   ..............................................................................................   ",
"   ..............................................................................................   ",
"   ..............................................................................................   ",
"   +OOOOOOOOOOOOOOOOOOOOOOOOOOOOOOOOOOOOOOOOOOOOOOOOOOOOOOOOOOOOOOOOOOOOOOOOOOOOOOOOOOOOOOOOOOOOO   ",
" @@@@@@@@@@@@@@@@@@@@@@@@@@@@@@@@@@@@@@@@@@@@@@@@@@@@@@@@@@@@@@@@@@@@@@@@@@@@@@@@@@@@@@@@@@@@@@@@@@ ",
" @@@@@@@@@@@@@@@@@@@@@@@@@@@@@@@@@@@@@@@@@@@@@@@@@@@@@@@@@@@@@@@@@@@@@@@@@@@@@@@@@@@@@@@@@@@@@@@@@@ ",
" @@@@@@@@@@@@@@@@@@@@@@@@@@@@@@@@@@@@@@@@@@@@@@@@@@@@@@@@@@@@@@@@@@@@@@@@@@@@@@@@@@@@@@@@@@@@@@@@@@ ",
" @@@@@@@@@@@@@@@@@@@@@@@@@@@@@@@@@@@@@@@@@@@@@@@@@@@@@@@@@@@@@@@@@@@@@@@@@@@@@@@@@@@@@@@@@@@@@@@@@@ ",
"                                                                                                    "
};
