/* XPM */
static char *_001[] = {
/* columns rows colors chars-per-pixel */
"100 100 7 1 ",
"  c None",
". c black",
"X c #3F3F3F",
"o c gray50",
"O c #9F9F9F",
"+ c gray75",
"@ c white",
/* pixels */
"                                                                                                    ",
" @@@@                                                                                          @@@@ ",
" @@@@                                                                                          @@@@ ",
" @@@@o........................................................................................X@@@@ ",
" @@@@o........................................................................................X@@@@ ",
" @@@@o........................................................................................X@@@@ ",
" @@@@o........................................................................................X@@@@ ",
" @@@@o........................................................................................X@@@@ ",
" @@@@o........................................................................................X@@@@ ",
" @@@@o........................................................................................X@@@@ ",
" @@@@o........................................................................................X@@@@ ",
" @@@@o........................................................................................X@@@@ ",
" @@@@o........................................................................................X@@@@ ",
" @@@@o........................................................................................X@@@@ ",
" @@@@o........................................................................................X@@@@ ",
" @@@@o........................................................................................X@@@@ ",
" @@@@o........................................................................................X@@@@ ",
" @@@@o........................................................................................X@@@@ ",
" @@@@o........................................................................................X@@@@ ",
" @@@@o........................................................................................X@@@@ ",
" @@@@o........................................................................................X@@@@ ",
" @@@@o........................................................................................X@@@@ ",
" @@@@o........................................................................................X@@@@ ",
" @@@@o........................................................................................X@@@@ ",
" @@@@o........................................................................................X@@@@ ",
" @@@@o........................................................................................X@@@@ ",
" @@@@o........................................................................................X@@@@ ",
" @@@@o........................................................................................X@@@@ ",
" @@@@o........................................................................................X@@@@ ",
" @@@@o........................................................................................X@@@@ ",
" @@@@o........................................................................................X@@@@ ",
" @@@@o........................................................................................X@@@@ ",
" @@@@o........................................................................................X@@@@ ",
" @@@@o........................................................................................X@@@@ ",
" @@@@o........................................................................................X@@@@ ",
" @@@@o........................................................................................X@@@@ ",
" @@@@o........................................................................................X@@@@ ",
" @@@@o........................................................................................X@@@@ ",
" @@@@o........................................................................................X@@@@ ",
" @@@@o........................................................................................X@@@@ ",
" @@@@o........................................................................................X@@@@ ",
" @@@@o........................................................................................X@@@@ ",
" @@@@o........................................................................................X@@@@ ",
" @@@@o........................................................................................X@@@@ ",
" @@@@o........................................................................................X@@@@ ",
" @@@@o........................................................................................X@@@@ ",
" @@@@o........................................................................................X@@@@ ",
" @@@@o........................................................................................X@@@@ ",
" @@@@o........................................................................................X@@@@ ",
" @@@@o........................................................................................X@@@@ ",
" @@@@o........................................................................................X@@@@ ",
" @@@@o........................................................................................X@@@@ ",
" @@@@o........................................................................................X@@@@ ",
" @@@@o........................................................................................X@@@@ ",
" @@@@o........................................................................................X@@@@ ",
" @@@@o........................................................................................X@@@@ ",
" @@@@o........................................................................................X@@@@ ",
" @@@@o........................................................................................X@@@@ ",
" @@@@o........................................................................................X@@@@ ",
" @@@@o........................................................................................X@@@@ ",
" @@@@o........................................................................................X@@@@ ",
" @@@@o........................................................................................X@@@@ ",
" @@@@o........................................................................................X@@@@ ",
" @@@@o........................................................................................X@@@@ ",
" @@@@o........................................................................................X@@@@ ",
" @@@@o........................................................................................X@@@@ ",
" @@@@o........................................................................................X@@@@ ",
" @@@@o........................................................................................X@@@@ ",
" @@@@o........................................................................................X@@@@ ",
" @@@@o........................................................................................X@@@@ ",
" @@@@o........................................................................................X@@@@ ",
" @@@@o........................................................................................X@@@@ ",
" @@@@o........................................................................................X@@@@ ",
" @@@@o........................................................................................X@@@@ ",
" @@@@o........................................................................................X@@@@ ",
" @@@@o........................................................................................X@@@@ ",
" @@@@o........................................................................................X@@@@ ",
" @@@@o........................................................................................X@@@@ ",
" @@@@o........................................................................................X@@@@ ",
" @@@@o........................................................................................X@@@@ ",
" @@@@o........................................................................................X@@@@ ",
" @@@@o........................................................................................X@@@@ ",
" @@@@o........................................................................................X@@@@ ",
" @@@@o........................................................................................X@@@@ ",
" @@@@o........................................................................................X@@@@ ",
" @@@@o........................................................................................X@@@@ ",
" @@@@o........................................................................................X@@@@ ",
" @@@@o........................................................................................X@@@@ ",
" @@@@o........................................................................................X@@@@ ",
" @@@@o........................................................................................X@@@@ ",
" @@@@o........................................................................................X@@@@ ",
" @@@@o........................................................................................X@@@@ ",
" @@@@o........................................................................................X@@@@ ",
" @@@@o........................................................................................X@@@@ ",
" @@@@+ooooooooooooooooooooooooooooooooooooooooooooooooooooooooooooooooooooooooooooooooooooooooO@@@@ ",
" @@@@@@@@@@@@@@@@@@@@@@@@@@@@@@@@@@@@@@@@@@@@@@@@@@@@@@@@@@@@@@@@@@@@@@@@@@@@@@@@@@@@@@@@@@@@@@@@@@ ",
" @@@@@@@@@@@@@@@@@@@@@@@@@@@@@@@@@@@@@@@@@@@@@@@@@@@@@@@@@@@@@@@@@@@@@@@@@@@@@@@@@@@@@@@@@@@@@@@@@@ ",
" @@@@@@@@@@@@@@@@@@@@@@@@@@@@@@@@@@@@@@@@@@@@@@@@@@@@@@@@@@@@@@@@@@@@@@@@@@@@@@@@@@@@@@@@@@@@@@@@@@ ",
" @@@@@@@@@@@@@@@@@@@@@@@@@@@@@@@@@@@@@@@@@@@@@@@@@@@@@@@@@@@@@@@@@@@@@@@@@@@@@@@@@@@@@@@@@@@@@@@@@@ ",
"                                                                                                    "
};
