/* XPM */
static char *_000[] = {
/* columns rows colors chars-per-pixel */
"64 64 28 1 ",
"  c None",
". c #FE0000",
"X c red",
"o c #FF0E08",
"O c #FE160C",
"+ c #FF1B10",
"@ c #FF2918",
"# c #FF351F",
"$ c #FF3720",
"% c #FE4327",
"& c #FF5230",
"* c #FE5833",
"= c #FF6D3F",
"- c #FF6D41",
"; c #FF7B49",
": c #FE7C4A",
"> c #FE9156",
", c #FFA35F",
"< c #FFA461",
"1 c #FEAE67",
"2 c #FEAE68",
"3 c #FEBB6E",
"4 c #FEC575",
"5 c #FECA77",
"6 c #FFD981",
"7 c #FEDA81",
"8 c #FFDA81",
"9 c #FEDB82",
/* pixels */
"                                                                ",
"                                                                ",
"                                9                               ",
"                               999                              ",
"                              99999                             ",
"                              9994,                             ",
"            .........       99999,=#.........                   ",
"           ...........     9999   #O..........                  ",
"          .............   99999   .............                 ",
"          .............   25952   .............                 ",
"        .................*>393>*.................               ",
"       ..................%:191:%..................              ",
"      ...................$-<9<-$...................             ",
"      ...................@&;<;&@...................             ",
"    .....................+$&-&$+.....................           ",
"   ......................o+@$@+o......................          ",
"  .....................................................         ",
"  .....................................................         ",
"  .....................................................         ",
"  .....................................................         ",
"  .....................................................         ",
"  .....................................................         ",
"  .....................................................         ",
"  .....................................................         ",
"  .....................................................         ",
"  .....................................................         ",
"  .....................................................         ",
"  .....................................................         ",
"  .....................................................         ",
"  .....................................................         ",
"  .....................................................         ",
"  .....................................................         ",
"  .....................................................         ",
"  .....................................................         ",
"  .....................................................         ",
"  .....................................................         ",
"  .....................................................         ",
"   ...................................................          ",
"    .................................................           ",
"      .............................................             ",
"      .............................................             ",
"      .............................................             ",
"      .............................................             ",
"      .............................................             ",
"      .............................................             ",
"       ...........................................              ",
"        .........................................               ",
"          .....................................                 ",
"          .....................................                 ",
"           ...................................                  ",
"            .................................                   ",
"              .............   .............                     ",
"              .............   .............                     ",
"               ...........     ...........                      ",
"                .........       .........                       ",
"                                                                ",
"                                                                ",
"                                                                ",
"                                                                ",
"                                                                ",
"                                                                ",
"                                                                ",
"                                                                ",
"                                                                "
};
