/* XPM */
static char *_000[] = {
/* columns rows colors chars-per-pixel */
"32 32 7 1 ",
"  c None",
". c black",
"X c #807600",
"o c #BFB100",
"O c #FFEB00",
"+ c #FEEC00",
"@ c #FFEC00",
/* pixels */
"                                ",
"      OOO             OOO       ",
"     O@@@O           O@@@O      ",
"    O@@@@O           O@@@@O     ",
"   O@@@@@O           O@@@@@O    ",
"  O@@@@@@O           O@@@@@@O   ",
" O@@@@@@@O           O@@@@@@@O  ",
" O@@@@@@@@O         O@@@@@@@@O  ",
" O@@@@@@@@@O       O@@@@@@@@@O  ",
"O@@@@@@@@@@O       O@@@@@@@@@@OO",
"@@@@@@@@@@@O       O@@@@@@@@@@@@",
"@@@@@@@@@@@O       O@@@@@@@@@@@@",
"@@@@@@@@@@@O       O@@@@@@@@@@@@",
"@@@@@@@@@@@@O     O@@@@@@@@@@@@@",
"@@@@@@@@@@@@@O   O@@@@@@@@@@@@@@",
"@@@@@@@@@@@@@O   O@@@@@@@@@@@@@@",
"@@@@@@@@@@@@@X   X@@@@@@@@@@@@@@",
"@@@@@oXXXo@@@oXXXo@@@@@@@@@@@@@@",
"@@@@@X...X@@@@@@@@@@@@@@@@@@@@@@",
"@@@@@X...X@@@@@@@@@@@@@@@@@@@@@@",
"@@@@@X...X@@@@@@@@@@@@@@@@@@@@@@",
"O@@@@oXXXo@@@@@@@@@@@@@@@@@@@@OO",
" O@@@@@@@@@@@@@@@@@@@@@@@@@@@O  ",
" O@@@@@@@@@@@@@@@@@@@@@@@@@@@O  ",
" O@@@@@@@@@@@@@@@@@@@@@@@@@@@O  ",
"  O@@@@@@@@@@@@@@@@@@@@@@@@@O   ",
"   O@@@@@@@@@@@@@@@@@@@@@@@O    ",
"    O@@@@@@@@@@@@@@@@@@@@@O     ",
"     O@@@@@@@@@@@@@@@@@@@O      ",
"      OOO@@@@@@@@@@@@@OOO       ",
"         O@@@@@@@@@@@O          ",
"         O@@@@@@@@@@@O          "
};
