/* XPM */
static char *_003[] = {
/* columns rows colors chars-per-pixel */
"64 64 8 1 ",
"  c None",
". c black",
"X c gray45",
"o c gray58",
"O c gray77",
"+ c #FDFDFD",
"@ c #FEFEFE",
"# c white",
/* pixels */
" @@                                                             ",
" @@                                                             ",
" @@X..........................................................  ",
" @@X..........................................................  ",
" @@X..........................................................  ",
" @@X..........................................................  ",
" @@X..........................................................  ",
" @@X..........................................................  ",
" @@X..........................................................  ",
" @@X..........................................................  ",
" @@X..........................................................  ",
" @@X..........................................................  ",
" @@X..........................................................  ",
" @@X..........................................................  ",
" @@X..........................................................  ",
" @@X..........................................................  ",
" @@X..........................................................  ",
" @@X..........................................................  ",
" @@X..........................................................  ",
" @@X..........................................................  ",
" @@X..........................................................  ",
" @@X..........................................................  ",
" @@X..........................................................  ",
" @@X..........................................................  ",
" @@X..........................................................  ",
" @@X..........................................................  ",
" @@X..........................................................  ",
" @@X..........................................................  ",
" @@X..........................................................  ",
" @@X..........................................................  ",
" @@X..........................................................  ",
" @@X..........................................................  ",
" @@X..........................................................  ",
" @@X..........................................................  ",
" @@X..........................................................  ",
" @@X..........................................................  ",
" @@X..........................................................  ",
" @@X..........................................................  ",
" @@X..........................................................  ",
" @@X..........................................................  ",
" @@X..........................................................  ",
" @@X..........................................................  ",
" @@X..........................................................  ",
" @@X..........................................................  ",
" @@X..........................................................  ",
" @@X..........................................................  ",
" @@X..........................................................  ",
" @@X..........................................................  ",
" @@X..........................................................  ",
" @@X..........................................................  ",
" @@X..........................................................  ",
" @@X..........................................................  ",
" @@X..........................................................  ",
" @@X..........................................................  ",
" @@X..........................................................  ",
" @@X..........................................................  ",
" @@X..........................................................  ",
" @@X..........................................................  ",
" @@X..........................................................  ",
" @@X..........................................................  ",
" @@Ooooooooooooooooooooooooooooooooooooooooooooooooooooooooooo@ ",
" @@@@@@@@@@@@@@@@@@@@@@@@@@@@@@@@@@@@@@@@@@@@@@@@@@@@@@@@@@@@@@ ",
" @@@@@@@@@@@@@@@@@@@@@@@@@@@@@@@@@@@@@@@@@@@@@@@@@@@@@@@@@@@@@@ ",
"                                                                "
};
