/* XPM */
static char *_005[] = {
/* columns rows colors chars-per-pixel */
"64 64 7 1 ",
"  c None",
". c black",
"X c #414141",
"o c gray29",
"O c #727272",
"+ c #FEFEFE",
"@ c white",
/* pixels */
" ++++++++++++++++++++++++++++++++++++++++++++++++++++++++++++++ ",
"+++++++++++++++++++++++++++++++++++++++++++++++++++++++++++++++ ",
"+++++++++++++++++++++++++++++++++++++++++++++++++++++++++++++++ ",
"+++OXXXXXXXXXXXXXXXXXXXXXXXXXXXXXXXXXXXXXXXXXXXXXXXXXXXXXXXXXo  ",
"+++X..........................................................  ",
"+++X..........................................................  ",
"+++X..........................................................  ",
"+++X..........................................................  ",
"+++X..........................................................  ",
"+++X..........................................................  ",
"+++X..........................................................  ",
"+++X..........................................................  ",
"+++X..........................................................  ",
"+++X..........................................................  ",
"+++X..........................................................  ",
"+++X..........................................................  ",
"+++X..........................................................  ",
"+++X..........................................................  ",
"+++X..........................................................  ",
"+++X..........................................................  ",
"+++X..........................................................  ",
"+++X..........................................................  ",
"+++X..........................................................  ",
"+++X..........................................................  ",
"+++X..........................................................  ",
"+++X..........................................................  ",
"+++X..........................................................  ",
"+++X..........................................................  ",
"+++X..........................................................  ",
"+++X..........................................................  ",
"+++X..........................................................  ",
"+++X..........................................................  ",
"+++X..........................................................  ",
"+++X..........................................................  ",
"+++X..........................................................  ",
"+++X..........................................................  ",
"+++X..........................................................  ",
"+++X..........................................................  ",
"+++X..........................................................  ",
"+++X..........................................................  ",
"+++X..........................................................  ",
"+++X..........................................................  ",
"+++X..........................................................  ",
"+++X..........................................................  ",
"+++X..........................................................  ",
"+++X..........................................................  ",
"+++X..........................................................  ",
"+++X..........................................................  ",
"+++X..........................................................  ",
"+++X..........................................................  ",
"+++X..........................................................  ",
"+++X..........................................................  ",
"+++X..........................................................  ",
"+++X..........................................................  ",
"+++X..........................................................  ",
"+++X..........................................................  ",
"+++X..........................................................  ",
"+++X..........................................................  ",
"+++X..........................................................  ",
"+++X..........................................................  ",
"+++X..........................................................  ",
"+++o..........................................................  ",
"+++                                                             ",
"                                                                "
};
