/* XPM */
static char *_000[] = {
/* columns rows colors chars-per-pixel */
"62 64 6 1 ",
"  c None",
". c black",
"X c gray25",
"o c #494949",
"O c #FEFEFE",
"+ c white",
/* pixels */
" OO                                                           ",
"OOO                                                           ",
"OOOX..........................................................",
"OOOX..........................................................",
"OOOX..........................................................",
"OOOX..........................................................",
"OOOX..........................................................",
"OOOX..........................................................",
"OOOX..........................................................",
"OOOX..........................................................",
"OOOX..........................................................",
"OOOX..........................................................",
"OOOX..........................................................",
"OOOX..........................................................",
"OOOX..........................................................",
"OOOX..........................................................",
"OOOX..........................................................",
"OOOX..........................................................",
"OOOX..........................................................",
"OOOX..........................................................",
"OOOX..........................................................",
"OOOX..........................................................",
"OOOX..........................................................",
"OOOX..........................................................",
"OOOX..........................................................",
"OOOX..........................................................",
"OOOX..........................................................",
"OOOX..........................................................",
"OOOX..........................................................",
"OOOX..........................................................",
"OOOX..........................................................",
"OOOX..........................................................",
"OOOX..........................................................",
"OOOX..........................................................",
"OOOX..........................................................",
"OOOX..........................................................",
"OOOX..........................................................",
"OOOX..........................................................",
"OOOX..........................................................",
"OOOX..........................................................",
"OOOX..........................................................",
"OOOX..........................................................",
"OOOX..........................................................",
"OOOX..........................................................",
"OOOX..........................................................",
"OOOX..........................................................",
"OOOX..........................................................",
"OOOX..........................................................",
"OOOX..........................................................",
"OOOX..........................................................",
"OOOX..........................................................",
"OOOX..........................................................",
"OOOX..........................................................",
"OOOX..........................................................",
"OOOX..........................................................",
"OOOX..........................................................",
"OOOX..........................................................",
"OOOX..........................................................",
"OOOX..........................................................",
"OOOX..........................................................",
"OOOX..........................................................",
"OOOo..........................................................",
"OOO                                                           ",
"                                                              "
};
