/* XPM */
static char *_006[] = {
/* columns rows colors chars-per-pixel */
"64 64 8 1 ",
"  c None",
". c black",
"X c #414141",
"o c gray58",
"O c #9F9F9F",
"+ c #AFAFAF",
"@ c #FEFEFE",
"# c white",
/* pixels */
" @@@@@@@@@@@@@@@@@@@@@@@@@@@@@@@@@@@@@@@@@@@@@@@@@@@@@@@@@@@@@@ ",
"@@@@@@@@@@@@@@@@@@@@@@@@@@@@@@@@@@@@@@@@@@@@@@@@@@@@@@@@@@@@@@@ ",
"@@@@@@@@@@@@@@@@@@@@@@@@@@@@@@@@@@@@@@@@@@@@@@@@@@@@@@@@@@@@@@@ ",
"  XXXXXXXXXXXXXXXXXXXXXXXXXXXXXXXXXXXXXXXXXXXXXXXXXXXXXXXXXX+@@ ",
"  ..........................................................o@@ ",
"  ..........................................................o@@ ",
"  ..........................................................o@@ ",
"  ..........................................................o@@ ",
"  ..........................................................o@@ ",
"  ..........................................................o@@ ",
"  ..........................................................o@@ ",
"  ..........................................................o@@ ",
"  ..........................................................o@@ ",
"  ..........................................................o@@ ",
"  ..........................................................o@@ ",
"  ..........................................................o@@ ",
"  ..........................................................o@@ ",
"  ..........................................................o@@ ",
"  ..........................................................o@@ ",
"  ..........................................................o@@ ",
"  ..........................................................o@@ ",
"  ..........................................................o@@ ",
"  ..........................................................o@@ ",
"  ..........................................................o@@ ",
"  ..........................................................o@@ ",
"  ..........................................................o@@ ",
"  ..........................................................o@@ ",
"  ..........................................................o@@ ",
"  ..........................................................o@@ ",
"  ..........................................................o@@ ",
"  ..........................................................o@@ ",
"  ..........................................................o@@ ",
"  ..........................................................o@@ ",
"  ..........................................................o@@ ",
"  ..........................................................o@@ ",
"  ..........................................................o@@ ",
"  ..........................................................o@@ ",
"  ..........................................................o@@ ",
"  ..........................................................o@@ ",
"  ..........................................................o@@ ",
"  ..........................................................o@@ ",
"  ..........................................................o@@ ",
"  ..........................................................o@@ ",
"  ..........................................................o@@ ",
"  ..........................................................o@@ ",
"  ..........................................................o@@ ",
"  ..........................................................o@@ ",
"  ..........................................................o@@ ",
"  ..........................................................o@@ ",
"  ..........................................................o@@ ",
"  ..........................................................o@@ ",
"  ..........................................................o@@ ",
"  ..........................................................o@@ ",
"  ..........................................................o@@ ",
"  ..........................................................o@@ ",
"  ..........................................................o@@ ",
"  ..........................................................o@@ ",
"  ..........................................................o@@ ",
"  ..........................................................o@@ ",
"  ..........................................................o@@ ",
"  ..........................................................o@@ ",
"  ..........................................................O@@ ",
"                                                            @@@ ",
"                                                                "
};
