/* XPM */
static char *_008[] = {
/* columns rows colors chars-per-pixel */
"64 64 9 1 ",
"  c None",
". c black",
"X c #414141",
"o c gray58",
"O c #AFAFAF",
"+ c #D2D2D2",
"@ c #F1F1F1",
"# c #FEFEFE",
"$ c white",
/* pixels */
" ############################################################## ",
"############################################################### ",
"############################################################### ",
"  XXXXXXXXXXXXXXXXXXXXXXXXXXXXXXXXXXXXXXXXXXXXXXXXXXXXXXXXXXO## ",
"  ..........................................................o## ",
"  ..........................................................o## ",
"  ..........................................................o## ",
"  ..........................................................o## ",
"  ..........................................................o## ",
"  ..........................................................o## ",
"  ..........................................................o## ",
"  ..........................................................o## ",
"  ..........................................................o## ",
"  ..........................................................o## ",
"  ..........................................................o## ",
"  ..........................................................o## ",
"  ..........................................................o## ",
"  ..........................................................o## ",
"  ..........................................................o## ",
"  ..........................................................o## ",
"  ..........................................................o## ",
"  ..........................................................o## ",
"  ..........................................................o## ",
"  ..........................................................o## ",
"  ..........................................................o## ",
"  ..........................................................o## ",
"  ..........................................................o## ",
"  ..........................................................o## ",
"  ..........................................................o## ",
"  ..........................................................o## ",
"  ..........................................................o## ",
"  ..........................................................o## ",
"  ..........................................................o## ",
"  ..........................................................o## ",
"  ..........................................................o## ",
"  ..........................................................o## ",
"  ..........................................................o## ",
"  ..........................................................o## ",
"  ..........................................................o## ",
"  ..........................................................o## ",
"  ..........................................................o## ",
"  ..........................................................o## ",
"  ..........................................................o## ",
"  ..........................................................o## ",
"  ..........................................................o## ",
"  ..........................................................o## ",
"  ..........................................................o## ",
"  ..........................................................o## ",
"  ..........................................................o## ",
"  ..........................................................o## ",
"  ..........................................................o## ",
"  ..........................................................o## ",
"  ..........................................................o## ",
"  ..........................................................o## ",
"  ..........................................................o## ",
"  ..........................................................o## ",
"  ..........................................................o## ",
"  ..........................................................o## ",
"  ..........................................................o## ",
"  ..........................................................o## ",
" @oooooooooooooooooooooooooooooooooooooooooooooooooooooooooo+## ",
"############################################################### ",
"############################################################### ",
"                                                                "
};
