/* XPM */
static char *_011[] = {
/* columns rows colors chars-per-pixel */
"64 64 9 1 ",
"  c None",
". c black",
"X c #414141",
"o c gray29",
"O c gray58",
"+ c #9F9F9F",
"@ c #F1F1F1",
"# c #FEFEFE",
"$ c white",
/* pixels */
" ##                                                          ## ",
"###                                                         @## ",
"###X........................................................O## ",
"###X........................................................O## ",
"###X........................................................O## ",
"###X........................................................O## ",
"###X........................................................O## ",
"###X........................................................O## ",
"###X........................................................O## ",
"###X........................................................O## ",
"###X........................................................O## ",
"###X........................................................O## ",
"###X........................................................O## ",
"###X........................................................O## ",
"###X........................................................O## ",
"###X........................................................O## ",
"###X........................................................O## ",
"###X........................................................O## ",
"###X........................................................O## ",
"###X........................................................O## ",
"###X........................................................O## ",
"###X........................................................O## ",
"###X........................................................O## ",
"###X........................................................O## ",
"###X........................................................O## ",
"###X........................................................O## ",
"###X........................................................O## ",
"###X........................................................O## ",
"###X........................................................O## ",
"###X........................................................O## ",
"###X........................................................O## ",
"###X........................................................O## ",
"###X........................................................O## ",
"###X........................................................O## ",
"###X........................................................O## ",
"###X........................................................O## ",
"###X........................................................O## ",
"###X........................................................O## ",
"###X........................................................O## ",
"###X........................................................O## ",
"###X........................................................O## ",
"###X........................................................O## ",
"###X........................................................O## ",
"###X........................................................O## ",
"###X........................................................O## ",
"###X........................................................O## ",
"###X........................................................O## ",
"###X........................................................O## ",
"###X........................................................O## ",
"###X........................................................O## ",
"###X........................................................O## ",
"###X........................................................O## ",
"###X........................................................O## ",
"###X........................................................O## ",
"###X........................................................O## ",
"###X........................................................O## ",
"###X........................................................O## ",
"###X........................................................O## ",
"###X........................................................O## ",
"###X........................................................O## ",
"###X........................................................O## ",
"###o........................................................+## ",
"###                                                         ### ",
"                                                                "
};
