/* XPM */
static char *_003[] = {
/* columns rows colors chars-per-pixel */
"100 100 7 1 ",
"  c None",
". c black",
"X c #3F3F3F",
"o c gray50",
"O c gray57",
"+ c #9F9F9F",
"@ c white",
/* pixels */
"                                                                                                    ",
"                                                                                               @@@@ ",
"                                                                                               @@@@ ",
"   ...........................................................................................X@@@@ ",
"   ...........................................................................................X@@@@ ",
"   ...........................................................................................X@@@@ ",
"   ...........................................................................................X@@@@ ",
"   ...........................................................................................X@@@@ ",
"   ...........................................................................................X@@@@ ",
"   ...........................................................................................X@@@@ ",
"   ...........................................................................................X@@@@ ",
"   ...........................................................................................X@@@@ ",
"   ...........................................................................................X@@@@ ",
"   ...........................................................................................X@@@@ ",
"   ...........................................................................................X@@@@ ",
"   ...........................................................................................X@@@@ ",
"   ...........................................................................................X@@@@ ",
"   ...........................................................................................X@@@@ ",
"   ...........................................................................................X@@@@ ",
"   ...........................................................................................X@@@@ ",
"   ...........................................................................................X@@@@ ",
"   ...........................................................................................X@@@@ ",
"   ...........................................................................................X@@@@ ",
"   ...........................................................................................X@@@@ ",
"   ...........................................................................................X@@@@ ",
"   ...........................................................................................X@@@@ ",
"   ...........................................................................................X@@@@ ",
"   ...........................................................................................X@@@@ ",
"   ...........................................................................................X@@@@ ",
"   ...........................................................................................X@@@@ ",
"   ...........................................................................................X@@@@ ",
"   ...........................................................................................X@@@@ ",
"   ...........................................................................................X@@@@ ",
"   ...........................................................................................X@@@@ ",
"   ...........................................................................................X@@@@ ",
"   ...........................................................................................X@@@@ ",
"   ...........................................................................................X@@@@ ",
"   ...........................................................................................X@@@@ ",
"   ...........................................................................................X@@@@ ",
"   ...........................................................................................X@@@@ ",
"   ...........................................................................................X@@@@ ",
"   ...........................................................................................X@@@@ ",
"   ...........................................................................................X@@@@ ",
"   ...........................................................................................X@@@@ ",
"   ...........................................................................................X@@@@ ",
"   ...........................................................................................X@@@@ ",
"   ...........................................................................................X@@@@ ",
"   ...........................................................................................X@@@@ ",
"   ...........................................................................................X@@@@ ",
"   ...........................................................................................X@@@@ ",
"   ...........................................................................................X@@@@ ",
"   ...........................................................................................X@@@@ ",
"   ...........................................................................................X@@@@ ",
"   ...........................................................................................X@@@@ ",
"   ...........................................................................................X@@@@ ",
"   ...........................................................................................X@@@@ ",
"   ...........................................................................................X@@@@ ",
"   ...........................................................................................X@@@@ ",
"   ...........................................................................................X@@@@ ",
"   ...........................................................................................X@@@@ ",
"   ...........................................................................................X@@@@ ",
"   ...........................................................................................X@@@@ ",
"   ...........................................................................................X@@@@ ",
"   ...........................................................................................X@@@@ ",
"   ...........................................................................................X@@@@ ",
"   ...........................................................................................X@@@@ ",
"   ...........................................................................................X@@@@ ",
"   ...........................................................................................X@@@@ ",
"   ...........................................................................................X@@@@ ",
"   ...........................................................................................X@@@@ ",
"   ...........................................................................................X@@@@ ",
"   ...........................................................................................X@@@@ ",
"   ...........................................................................................X@@@@ ",
"   ...........................................................................................X@@@@ ",
"   ...........................................................................................X@@@@ ",
"   ...........................................................................................X@@@@ ",
"   ...........................................................................................X@@@@ ",
"   ...........................................................................................X@@@@ ",
"   ...........................................................................................X@@@@ ",
"   ...........................................................................................X@@@@ ",
"   ...........................................................................................X@@@@ ",
"   ...........................................................................................X@@@@ ",
"   ...........................................................................................X@@@@ ",
"   ...........................................................................................X@@@@ ",
"   ...........................................................................................X@@@@ ",
"   ...........................................................................................X@@@@ ",
"   ...........................................................................................X@@@@ ",
"   ...........................................................................................X@@@@ ",
"   ...........................................................................................X@@@@ ",
"   ...........................................................................................X@@@@ ",
"   ...........................................................................................X@@@@ ",
"   ...........................................................................................X@@@@ ",
"   ...........................................................................................X@@@@ ",
"   ...........................................................................................X@@@@ ",
"   Ooooooooooooooooooooooooooooooooooooooooooooooooooooooooooooooooooooooooooooooooooooooooooo+@@@@ ",
" @@@@@@@@@@@@@@@@@@@@@@@@@@@@@@@@@@@@@@@@@@@@@@@@@@@@@@@@@@@@@@@@@@@@@@@@@@@@@@@@@@@@@@@@@@@@@@@@@@ ",
" @@@@@@@@@@@@@@@@@@@@@@@@@@@@@@@@@@@@@@@@@@@@@@@@@@@@@@@@@@@@@@@@@@@@@@@@@@@@@@@@@@@@@@@@@@@@@@@@@@ ",
" @@@@@@@@@@@@@@@@@@@@@@@@@@@@@@@@@@@@@@@@@@@@@@@@@@@@@@@@@@@@@@@@@@@@@@@@@@@@@@@@@@@@@@@@@@@@@@@@@@ ",
" @@@@@@@@@@@@@@@@@@@@@@@@@@@@@@@@@@@@@@@@@@@@@@@@@@@@@@@@@@@@@@@@@@@@@@@@@@@@@@@@@@@@@@@@@@@@@@@@@@ ",
"                                                                                                    "
};
