/* XPM */
static char *_002[] = {
/* columns rows colors chars-per-pixel */
"100 100 5 1 ",
"  c None",
". c black",
"X c gray50",
"o c gray75",
"O c white",
/* pixels */
"                                                                                                    ",
" OOOO                                                                                               ",
" OOOO                                                                                               ",
" OOOOX...........................................................................................   ",
" OOOOX...........................................................................................   ",
" OOOOX...........................................................................................   ",
" OOOOX...........................................................................................   ",
" OOOOX...........................................................................................   ",
" OOOOX...........................................................................................   ",
" OOOOX...........................................................................................   ",
" OOOOX...........................................................................................   ",
" OOOOX...........................................................................................   ",
" OOOOX...........................................................................................   ",
" OOOOX...........................................................................................   ",
" OOOOX...........................................................................................   ",
" OOOOX...........................................................................................   ",
" OOOOX...........................................................................................   ",
" OOOOX...........................................................................................   ",
" OOOOX...........................................................................................   ",
" OOOOX...........................................................................................   ",
" OOOOX...........................................................................................   ",
" OOOOX...........................................................................................   ",
" OOOOX...........................................................................................   ",
" OOOOX...........................................................................................   ",
" OOOOX...........................................................................................   ",
" OOOOX...........................................................................................   ",
" OOOOX...........................................................................................   ",
" OOOOX...........................................................................................   ",
" OOOOX...........................................................................................   ",
" OOOOX...........................................................................................   ",
" OOOOX...........................................................................................   ",
" OOOOX...........................................................................................   ",
" OOOOX...........................................................................................   ",
" OOOOX...........................................................................................   ",
" OOOOX...........................................................................................   ",
" OOOOX...........................................................................................   ",
" OOOOX...........................................................................................   ",
" OOOOX...........................................................................................   ",
" OOOOX...........................................................................................   ",
" OOOOX...........................................................................................   ",
" OOOOX...........................................................................................   ",
" OOOOX...........................................................................................   ",
" OOOOX...........................................................................................   ",
" OOOOX...........................................................................................   ",
" OOOOX...........................................................................................   ",
" OOOOX...........................................................................................   ",
" OOOOX...........................................................................................   ",
" OOOOX...........................................................................................   ",
" OOOOX...........................................................................................   ",
" OOOOX...........................................................................................   ",
" OOOOX...........................................................................................   ",
" OOOOX...........................................................................................   ",
" OOOOX...........................................................................................   ",
" OOOOX...........................................................................................   ",
" OOOOX...........................................................................................   ",
" OOOOX...........................................................................................   ",
" OOOOX...........................................................................................   ",
" OOOOX...........................................................................................   ",
" OOOOX...........................................................................................   ",
" OOOOX...........................................................................................   ",
" OOOOX...........................................................................................   ",
" OOOOX...........................................................................................   ",
" OOOOX...........................................................................................   ",
" OOOOX...........................................................................................   ",
" OOOOX...........................................................................................   ",
" OOOOX...........................................................................................   ",
" OOOOX...........................................................................................   ",
" OOOOX...........................................................................................   ",
" OOOOX...........................................................................................   ",
" OOOOX...........................................................................................   ",
" OOOOX...........................................................................................   ",
" OOOOX...........................................................................................   ",
" OOOOX...........................................................................................   ",
" OOOOX...........................................................................................   ",
" OOOOX...........................................................................................   ",
" OOOOX...........................................................................................   ",
" OOOOX...........................................................................................   ",
" OOOOX...........................................................................................   ",
" OOOOX...........................................................................................   ",
" OOOOX...........................................................................................   ",
" OOOOX...........................................................................................   ",
" OOOOX...........................................................................................   ",
" OOOOX...........................................................................................   ",
" OOOOX...........................................................................................   ",
" OOOOX...........................................................................................   ",
" OOOOX...........................................................................................   ",
" OOOOX...........................................................................................   ",
" OOOOX...........................................................................................   ",
" OOOOX...........................................................................................   ",
" OOOOX...........................................................................................   ",
" OOOOX...........................................................................................   ",
" OOOOX...........................................................................................   ",
" OOOOX...........................................................................................   ",
" OOOOX...........................................................................................   ",
" OOOOoXXXXXXXXXXXXXXXXXXXXXXXXXXXXXXXXXXXXXXXXXXXXXXXXXXXXXXXXXXXXXXXXXXXXXXXXXXXXXXXXXXXXXXXXXXX   ",
" OOOOOOOOOOOOOOOOOOOOOOOOOOOOOOOOOOOOOOOOOOOOOOOOOOOOOOOOOOOOOOOOOOOOOOOOOOOOOOOOOOOOOOOOOOOOOOOOOO ",
" OOOOOOOOOOOOOOOOOOOOOOOOOOOOOOOOOOOOOOOOOOOOOOOOOOOOOOOOOOOOOOOOOOOOOOOOOOOOOOOOOOOOOOOOOOOOOOOOOO ",
" OOOOOOOOOOOOOOOOOOOOOOOOOOOOOOOOOOOOOOOOOOOOOOOOOOOOOOOOOOOOOOOOOOOOOOOOOOOOOOOOOOOOOOOOOOOOOOOOOO ",
" OOOOOOOOOOOOOOOOOOOOOOOOOOOOOOOOOOOOOOOOOOOOOOOOOOOOOOOOOOOOOOOOOOOOOOOOOOOOOOOOOOOOOOOOOOOOOOOOOO ",
"                                                                                                    "
};
