/* XPM */
static char *_002[] = {
/* columns rows colors chars-per-pixel */
"100 97 5 1 ",
"  c None",
". c black",
"X c #3F3F3F",
"o c #4E4E4E",
"O c white",
/* pixels */
"   ..............................................................................................   ",
"   ..............................................................................................   ",
"   ..............................................................................................   ",
"   ..............................................................................................   ",
"   ..............................................................................................   ",
"   ..............................................................................................   ",
"   ..............................................................................................   ",
"   ..............................................................................................   ",
"   ..............................................................................................   ",
"   ..............................................................................................   ",
"   ..............................................................................................   ",
"   ..............................................................................................   ",
"   ..............................................................................................   ",
"   ..............................................................................................   ",
"   ..............................................................................................   ",
"   ..............................................................................................   ",
"   ..............................................................................................   ",
"   ..............................................................................................   ",
"   ..............................................................................................   ",
"   ..............................................................................................   ",
"   ..............................................................................................   ",
"   ..............................................................................................   ",
"   ..............................................................................................   ",
"   ..............................................................................................   ",
"   ..............................................................................................   ",
"   ..............................................................................................   ",
"   ..............................................................................................   ",
"   ..............................................................................................   ",
"   ..............................................................................................   ",
"   ..............................................................................................   ",
"   ..............................................................................................   ",
"   ..............................................................................................   ",
"   ..............................................................................................   ",
"   ..............................................................................................   ",
"   ..............................................................................................   ",
"   ..............................................................................................   ",
"   ..............................................................................................   ",
"   ..............................................................................................   ",
"   ..............................................................................................   ",
"   ..............................................................................................   ",
"   ..............................................................................................   ",
"   ..............................................................................................   ",
"   ..............................................................................................   ",
"   ..............................................................................................   ",
"   ..............................................................................................   ",
"   ..............................................................................................   ",
"   ..............................................................................................   ",
"   ..............................................................................................   ",
"   ..............................................................................................   ",
"   ..............................................................................................   ",
"   ..............................................................................................   ",
"   ..............................................................................................   ",
"   ..............................................................................................   ",
"   ..............................................................................................   ",
"   ..............................................................................................   ",
"   ..............................................................................................   ",
"   ..............................................................................................   ",
"   ..............................................................................................   ",
"   ..............................................................................................   ",
"   ..............................................................................................   ",
"   ..............................................................................................   ",
"   ..............................................................................................   ",
"   ..............................................................................................   ",
"   ..............................................................................................   ",
"   ..............................................................................................   ",
"   ..............................................................................................   ",
"   ..............................................................................................   ",
"   ..............................................................................................   ",
"   ..............................................................................................   ",
"   ..............................................................................................   ",
"   ..............................................................................................   ",
"   ..............................................................................................   ",
"   ..............................................................................................   ",
"   ..............................................................................................   ",
"   ..............................................................................................   ",
"   ..............................................................................................   ",
"   ..............................................................................................   ",
"   ..............................................................................................   ",
"   ..............................................................................................   ",
"   ..............................................................................................   ",
"   ..............................................................................................   ",
"   ..............................................................................................   ",
"   ..............................................................................................   ",
"   ..............................................................................................   ",
"   ..............................................................................................   ",
"   ..............................................................................................   ",
"   ..............................................................................................   ",
"   ..............................................................................................   ",
"   ..............................................................................................   ",
"   ..............................................................................................   ",
"   ..............................................................................................   ",
"   XXXXXXXXXXXXXXXXXXXXXXXXXXXXXXXXXXXXXXXXXXXXXXXXXXXXXXXXXXXXXXXXXXXXXXXXXXXXXXXXXXXXXXXXXXXXXo   ",
" OOOOOOOOOOOOOOOOOOOOOOOOOOOOOOOOOOOOOOOOOOOOOOOOOOOOOOOOOOOOOOOOOOOOOOOOOOOOOOOOOOOOOOOOOOOOOOOOOO ",
" OOOOOOOOOOOOOOOOOOOOOOOOOOOOOOOOOOOOOOOOOOOOOOOOOOOOOOOOOOOOOOOOOOOOOOOOOOOOOOOOOOOOOOOOOOOOOOOOOO ",
" OOOOOOOOOOOOOOOOOOOOOOOOOOOOOOOOOOOOOOOOOOOOOOOOOOOOOOOOOOOOOOOOOOOOOOOOOOOOOOOOOOOOOOOOOOOOOOOOOO ",
" OOOOOOOOOOOOOOOOOOOOOOOOOOOOOOOOOOOOOOOOOOOOOOOOOOOOOOOOOOOOOOOOOOOOOOOOOOOOOOOOOOOOOOOOOOOOOOOOOO ",
"                                                                                                    "
};
