/* XPM */
static char *_000[] = {
/* columns rows colors chars-per-pixel */
"31 32 5 1 ",
"  c None",
". c black",
"X c gray69",
"o c gray70",
"O c #FEFEFE",
/* pixels */
"                              O",
".............................XO",
".............................XO",
".............................XO",
".............................XO",
".............................XO",
".............................XO",
".............................XO",
".............................XO",
".............................XO",
".............................XO",
".............................XO",
".............................XO",
".............................XO",
".............................XO",
".............................XO",
".............................XO",
".............................XO",
".............................XO",
".............................XO",
".............................XO",
".............................XO",
".............................XO",
".............................XO",
".............................XO",
".............................XO",
".............................XO",
".............................XO",
".............................XO",
".............................XO",
".............................XO",
"                             OO"
};
