/* XPM */
static char *_000[] = {
/* columns rows colors chars-per-pixel */
"32 32 6 1 ",
"  c None",
". c black",
"X c gray68",
"o c #B1B1B1",
"O c gray90",
"+ c #FEFEFE",
/* pixels */
"++++++++++++++++++++++++++++++++",
"+OXXXXXXXXXXXXXXXXXXXXXXXXXXXXo ",
"+X............................. ",
"+X............................. ",
"+X............................. ",
"+X............................. ",
"+X............................. ",
"+X............................. ",
"+X............................. ",
"+X............................. ",
"+X............................. ",
"+X............................. ",
"+X............................. ",
"+X............................. ",
"+X............................. ",
"+X............................. ",
"+X............................. ",
"+X............................. ",
"+X............................. ",
"+X............................. ",
"+X............................. ",
"+X............................. ",
"+X............................. ",
"+X............................. ",
"+X............................. ",
"+X............................. ",
"+X............................. ",
"+X............................. ",
"+X............................. ",
"+X............................. ",
"+o............................. ",
"+                               "
};
