/* XPM */
static char *_000[] = {
/* columns rows colors chars-per-pixel */
"32 32 9 1 ",
"  c None",
". c black",
"X c #B1B1B1",
"o c gray79",
"O c #CBCBCB",
"+ c #EFEFEF",
"@ c #F9F9F9",
"# c #FDFDFD",
"$ c #FEFEFE",
/* pixels */
"                              @#",
" .............................X#",
" .............................X#",
" .............................X#",
" .............................X#",
" .............................X#",
" .............................X#",
" .............................X#",
" .............................X#",
" .............................X#",
" .............................X#",
" .............................X#",
" .............................X#",
" .............................X#",
" .............................X#",
" .............................X#",
" .............................X#",
" .............................X#",
" .............................X#",
" .............................X#",
" .............................X#",
" .............................X#",
" .............................X#",
" .............................X#",
" .............................X#",
" .............................X#",
" .............................X#",
" .............................X#",
" .............................X#",
" .............................X#",
"#OOOOOOOOOOOOOOOOOOOOOOOOOOOOO+#",
" ###############################"
};
