/* XPM */
static char *_000[] = {
/* columns rows colors chars-per-pixel */
"32 32 9 1 ",
"  c None",
". c black",
"X c gray68",
"o c gray79",
"O c #EEEEEE",
"+ c #F4F4F4",
"@ c gray97",
"# c #FBFBFB",
"$ c #FEFEFE",
/* pixels */
"$$$$$$$$$$$$$$$$$$$$$$$$$$$$$$$$",
"@XXXXXXXXXXXXXXXXXXXXXXXXXXXXXO$",
" .............................o$",
" .............................o$",
" .............................o$",
" .............................o$",
" .............................o$",
" .............................o$",
" .............................o$",
" .............................o$",
" .............................o$",
" .............................o$",
" .............................o$",
" .............................o$",
" .............................o$",
" .............................o$",
" .............................o$",
" .............................o$",
" .............................o$",
" .............................o$",
" .............................o$",
" .............................o$",
" .............................o$",
" .............................o$",
" .............................o$",
" .............................o$",
" .............................o$",
" .............................o$",
" .............................o$",
" .............................o$",
"#ooooooooooooooooooooooooooooo@$",
"$$$$$$$$$$$$$$$$$$$$$$$$$$$$$$$ "
};
