/* XPM */
static char *_000[] = {
/* columns rows colors chars-per-pixel */
"32 32 7 1 ",
"  c None",
". c black",
"X c #807600",
"o c #BFB100",
"O c #FFEB00",
"+ c #FEEC00",
"@ c #FFEC00",
/* pixels */
"         O@@@@@@@@@@@O          ",
"      OOO@@@@@@@@@@@@@OOO       ",
"     O@@@@@@@@@@@@@@@@@@@O      ",
"    O@@@@@@@@@@@@@@@@@@@@@O     ",
"   O@@@@@@@@@@@@@@@@@@@@@@@O    ",
"  O@@@@@@oXXXo@@@@@@@@@@@@@@O   ",
" O@@@@@@@X...X@@@@@@@@@@@@@@@O  ",
" O@@@@@@@X...X@@@@@@@@@@@@@@@O  ",
" O@@@@@@@X...X@@@@@@@@@@@@@@@O  ",
"O@@@@@@@@oXXXo@@@@@@@@@@OOOOO   ",
"@@@@@@@@@@@@@@@@@@@@@@@O        ",
"@@@@@@@@@@@@@@@@@@OOOOO         ",
"@@@@@@@@@@@@@@@@@O              ",
"@@@@@@@@@@@@@@OOO               ",
"@@@@@@@@@@@@@O                  ",
"@@@@@@@@@@@@@O                  ",
"@@@@@@@@@@@@@O                  ",
"@@@@@@@@@@@@@@OOO               ",
"@@@@@@@@@@@@@@@@@O              ",
"@@@@@@@@@@@@@@@@@@OOOOO         ",
"@@@@@@@@@@@@@@@@@@@@@@@O        ",
"O@@@@@@@@@@@@@@@@@@@@@@@OOOOO   ",
" O@@@@@@@@@@@@@@@@@@@@@@@@@@@O  ",
" O@@@@@@@@@@@@@@@@@@@@@@@@@@@O  ",
" O@@@@@@@@@@@@@@@@@@@@@@@@@@@O  ",
"  O@@@@@@@@@@@@@@@@@@@@@@@@@O   ",
"   O@@@@@@@@@@@@@@@@@@@@@@@O    ",
"    O@@@@@@@@@@@@@@@@@@@@@O     ",
"     O@@@@@@@@@@@@@@@@@@@O      ",
"      OOO@@@@@@@@@@@@@OOO       ",
"         O@@@@@@@@@@@O          ",
"         O@@@@@@@@@@@O          "
};
