/* XPM */
static char *_000[] = {
/* columns rows colors chars-per-pixel */
"64 64 15 1 ",
"  c None",
". c black",
"X c #403B00",
"o c #706700",
"O c #807600",
"+ c #9F9400",
"@ c #BFB100",
"# c #CFC000",
"$ c #DFCF00",
"% c #EFDD00",
"& c #FEEB00",
"* c #FFEB00",
"= c #FEEC00",
"- c #FFEC00",
"; c #FEED00",
/* pixels */
"                                                                ",
"                                                                ",
"            *****                           *****               ",
"           ;;;;;;;                         ;;;;;;;              ",
"          *;;;;;;;*                       *;;;;;;;*             ",
"          ;;;;;;;;*                       *;;;;;;;;             ",
"        *;;;;;*;;;*                       *;;;;;;;;;*           ",
"       ;;;**;;*;;;*                       *;;;;;;*;;;;          ",
"      *;;;;;;;;;;;*                       *;;;*;;;;;;;*         ",
"      ;;;;;;;;;;;;*                       *;;;*;;;;;;;;         ",
"    *;;;;;;;;;;;;;*                       *;;;;;;;;;;;;;*       ",
"   ;;;;*;;;;;;;*;;*                       *;;;;;;;;;;*;*;;      ",
"  *;;;;;;;*;;;;*;;*                       *;;;;;;;;*;;;;;;*     ",
"  *;;;;;;;;*;;;;;;;                       ;;;;;;;;*;;;;;;;*     ",
"  *;;;;;;;;;;;;;;;;;*                   *;;;;;;;;;;;;;;;;;*     ",
"  *;;;;;;;;;;;;;;*;;;;                 ;;;;**;;;;;;;;;;;;;*     ",
"  *;;;*;;;;;;;;;;;;;;;*               *;;;;;;;;;;;;;;;;;;;*     ",
"  ;;;;*;;;;;;;;;;;;;;;*               *;;;;;;;;;;;;;;;;;;;;     ",
"*;;;;;;;;;*;;;;;;;;;;;*               *;;;;;;;*;;;;;;;;;;;;;****",
";;;*;;;;;;*;;;;*;;;;;;*               *;;;;;;**;;;**;;;;;*;;;;;;",
";;;;;;;;;*;;;;;*;;;;;;*               *;;;;;;*;;;*;;;;**;;;;;;;;",
";;;;;;;;;;;;;;;;;;*;;;*               *;;;;;;;;;;*;;;;;;;;;;;;;;",
";;;;;;;;;;;;;;;;;;;;;;*               *;;;;;;;;;;;;;;;;;;;;;;;*;",
";;;;**;;;;;;;;;;;;;*;;*               *;;;;;;;;;;;;;;;;;;;;;;;*;",
";;*;;;;;;;*;;;*;;;;;;;*               *;;;;;;;;;;;;;;;;*;;;;**;;",
";;*;;;;;;;;;;;*;;;;;;;;               ;;;;;;;;;;;;;;;;;*;;;;;;;;",
";;;;;;;;;;;;;;;;;;;;;;;;*           *;;;;;;;**;;*;;;;;;;;;;;;;;;",
";;;;*;;;;;;;;;;;;;;;;*;;;;         ;;;;***;;;;;;;;;;;;;;;;;;;;;;",
";;;;*;;;**;;;*;;;;;;;;;;;;*       *;;;;;;;;;;*;;**;;;;;;;;;*;;;;",
";;;;;;;;;;;;;*;;;;**;;;;;;*       *;;;;;;;;;;;;;;;;;;;*;;;;;;;;;",
";;*;;;;;;;;;;;;;;;;;;;;;;;*       *;;;;;;;;;;;;;;;;;;;*;;;;;;*;;",
";;*;;;;;;;;;;;;;;;;;;;;;;;*       *;;;**;;;;;;;;;;;;;;;;;;;;;*;;",
";*;;;;;;;;;;;;;;;;;;;;;;;@O       O@;;;;;;;;;;;;;;;;;;;;;;;;;**;",
";;;;**;;;%$#@@@@@#$%;;;;;#+       +#;;;;;;;;;;;;;;;;;;;;;;**;;;;",
";;;;;;;;;$@+OOOOO+@$;;;;;$@+OOOOO+@$;;;;;**;;;;*;;*;*;;;;;;;;;;;",
";;;;;;;;;#+oXXXXXo+#;;;;;%$#@@@@@#$%*;;;;*;;;;;;;;*;*;;;;;;;;;;;",
";;;;;;;;;@OX.....XO@;;;;;;;;;;*;;;;;;;;;;;;;;;;;;;;;;;;;;;;;;;;;",
";;;;;;;;;@OX.....XO@;;;;;;;;;;;;;;;;;;;;;;;;;;;;;;;;;;;;;;;;;;;;",
"*;;;;*;;;@OX.....XO@;;;;;;;;;;;;;;;;;;;;**;;;;;;;;;*;;;;;;*;;;;;",
"*;;;;*;;;@OX.....XO@;;;;;;;;;;;;;;;;;;;;;;;;;;**;;;;;;;*;;;;;;**",
";;;;;;*;;@OX.....XO@;;;;;;;;;;;;;;;;;;**;;**;;;;;;;;;;;*;;;;;;;;",
";;;*;**;;#+oXXXXXo+#;;;;;;;;;;;;;;*;;;;;;;;;;;;;;;**;;;;;*;;;;;;",
"*;;;;;;;;$@+OOOOO+@$;;;;;;*;;;;;;;;;;;;;;;;;;;;;;;;;;;;;;;;;****",
"  ;;;;;;;%$#@@@@@#$%;;;;;;*;;;;*;;;;;;;;;;;;;;;;;;;;;;;;;;;     ",
"  *;;;;;;;;;;;;;;;;;;;;*;*;;;;;*;;;;;;;;;;;;*;;;;**;;;;;;;*     ",
"  *;;;;;;;;;;;;;;;;;;;;*;;;;;;;;;;;;;;;;;;;;;;;;;;;;;;;;;;*     ",
"  *;;;;;;;;;;;;;**;;;;;;;;;;;;;;;;**;;;;;;*;;;;;;;;;;;;;;;*     ",
"  *;*;;;;;;;;;;;;;;;;;;;;;;;;;;;;;;;;**;;;*;;;;;;;;;;;;;;;*     ",
"  *;;;;;;;;;;;;;;;;;;;;;;;*;;;*;;;;;;;;;;;;;;;;;;;;;;;;;;;*     ",
"   ;;;;*;;;;;;;;;;;;;;;;;;;;;;*;;;;;;;;;;;;;**;;;;;;;*;*;;      ",
"    *;;;;;;;;*;;;;*;;;;;;;;;;;;;;;;*;*;;;;;*;;;;*;;;;;;;*       ",
"      ;;;;;;;*;;;;*;;;**;;;;;;;;;;;*;*;;;;;;;;;;*;;;;;;         ",
"      *;;;;;;;;;;;;;;;;;**;;;*;;;;;;;;;;;;;;;;;;;;;;;;*         ",
"       ;;;;*;;;;;;;;;;;;;;;;;*;;;;;;;;;;;;;*;;;;;*;;;;          ",
"        *;;;;;;;;*;;;;;;;;;;;;;;;;;;*;;;;;;;;;;;;;;;*           ",
"          ;;;;;;;*;;;*;;;;;;;;;;*;;;;;;;;;;;;;;;;;;             ",
"          *;;;;;;;;;;;;;;;;;;;;;*;;;;;;;;;;;;;;;;;*             ",
"           ;;;;;;;;*;;;;*;;;;;;;;;;;;;;;;***;;;;;;              ",
"            *****;;;;;;;;;;;**;;;;;;;;;;;;;;*****               ",
"                  ;;;;;;;;;;;;;;;;;;*;;;;;;                     ",
"                  *;;;;;;;;;;;;;;*;;;;;;;;*                     ",
"                  *;;;;;**;;;;;;;*;;*;;;;;*                     ",
"                  *;;;;;*;;;;;;;;;;;*;;;;;*                     ",
"                  *;;;;;;;;;*;;;;;;;;;;;;;*                     "
};
