/* XPM */
static char *_003[] = {
/* columns rows colors chars-per-pixel */
"97 100 5 1 ",
"  c None",
". c black",
"X c #3F3F3F",
"o c #4E4E4E",
"O c white",
/* pixels */
"                                                                                                 ",
" OOOO                                                                                            ",
" OOOO                                                                                            ",
" OOOOX...........................................................................................",
" OOOOX...........................................................................................",
" OOOOX...........................................................................................",
" OOOOX...........................................................................................",
" OOOOX...........................................................................................",
" OOOOX...........................................................................................",
" OOOOX...........................................................................................",
" OOOOX...........................................................................................",
" OOOOX...........................................................................................",
" OOOOX...........................................................................................",
" OOOOX...........................................................................................",
" OOOOX...........................................................................................",
" OOOOX...........................................................................................",
" OOOOX...........................................................................................",
" OOOOX...........................................................................................",
" OOOOX...........................................................................................",
" OOOOX...........................................................................................",
" OOOOX...........................................................................................",
" OOOOX...........................................................................................",
" OOOOX...........................................................................................",
" OOOOX...........................................................................................",
" OOOOX...........................................................................................",
" OOOOX...........................................................................................",
" OOOOX...........................................................................................",
" OOOOX...........................................................................................",
" OOOOX...........................................................................................",
" OOOOX...........................................................................................",
" OOOOX...........................................................................................",
" OOOOX...........................................................................................",
" OOOOX...........................................................................................",
" OOOOX...........................................................................................",
" OOOOX...........................................................................................",
" OOOOX...........................................................................................",
" OOOOX...........................................................................................",
" OOOOX...........................................................................................",
" OOOOX...........................................................................................",
" OOOOX...........................................................................................",
" OOOOX...........................................................................................",
" OOOOX...........................................................................................",
" OOOOX...........................................................................................",
" OOOOX...........................................................................................",
" OOOOX...........................................................................................",
" OOOOX...........................................................................................",
" OOOOX...........................................................................................",
" OOOOX...........................................................................................",
" OOOOX...........................................................................................",
" OOOOX...........................................................................................",
" OOOOX...........................................................................................",
" OOOOX...........................................................................................",
" OOOOX...........................................................................................",
" OOOOX...........................................................................................",
" OOOOX...........................................................................................",
" OOOOX...........................................................................................",
" OOOOX...........................................................................................",
" OOOOX...........................................................................................",
" OOOOX...........................................................................................",
" OOOOX...........................................................................................",
" OOOOX...........................................................................................",
" OOOOX...........................................................................................",
" OOOOX...........................................................................................",
" OOOOX...........................................................................................",
" OOOOX...........................................................................................",
" OOOOX...........................................................................................",
" OOOOX...........................................................................................",
" OOOOX...........................................................................................",
" OOOOX...........................................................................................",
" OOOOX...........................................................................................",
" OOOOX...........................................................................................",
" OOOOX...........................................................................................",
" OOOOX...........................................................................................",
" OOOOX...........................................................................................",
" OOOOX...........................................................................................",
" OOOOX...........................................................................................",
" OOOOX...........................................................................................",
" OOOOX...........................................................................................",
" OOOOX...........................................................................................",
" OOOOX...........................................................................................",
" OOOOX...........................................................................................",
" OOOOX...........................................................................................",
" OOOOX...........................................................................................",
" OOOOX...........................................................................................",
" OOOOX...........................................................................................",
" OOOOX...........................................................................................",
" OOOOX...........................................................................................",
" OOOOX...........................................................................................",
" OOOOX...........................................................................................",
" OOOOX...........................................................................................",
" OOOOX...........................................................................................",
" OOOOX...........................................................................................",
" OOOOX...........................................................................................",
" OOOOX...........................................................................................",
" OOOOX...........................................................................................",
" OOOOX...........................................................................................",
" OOOOo...........................................................................................",
" OOOO                                                                                            ",
" OOOO                                                                                            ",
"                                                                                                 "
};
