/* XPM */
static char *_004[] = {
/* columns rows colors chars-per-pixel */
"100 100 6 1 ",
"  c None",
". c black",
"X c #3F3F3F",
"o c #4E4E4E",
"O c #6F6F6F",
"+ c white",
/* pixels */
"                                                                                                    ",
" ++++++++++++++++++++++++++++++++++++++++++++++++++++++++++++++++++++++++++++++++++++++++++++++++++ ",
" ++++++++++++++++++++++++++++++++++++++++++++++++++++++++++++++++++++++++++++++++++++++++++++++++++ ",
" ++++++++++++++++++++++++++++++++++++++++++++++++++++++++++++++++++++++++++++++++++++++++++++++++++ ",
" ++++++++++++++++++++++++++++++++++++++++++++++++++++++++++++++++++++++++++++++++++++++++++++++++++ ",
" ++++OXXXXXXXXXXXXXXXXXXXXXXXXXXXXXXXXXXXXXXXXXXXXXXXXXXXXXXXXXXXXXXXXXXXXXXXXXXXXXXXXXXXXXXXXXXo   ",
" ++++X...........................................................................................   ",
" ++++X...........................................................................................   ",
" ++++X...........................................................................................   ",
" ++++X...........................................................................................   ",
" ++++X...........................................................................................   ",
" ++++X...........................................................................................   ",
" ++++X...........................................................................................   ",
" ++++X...........................................................................................   ",
" ++++X...........................................................................................   ",
" ++++X...........................................................................................   ",
" ++++X...........................................................................................   ",
" ++++X...........................................................................................   ",
" ++++X...........................................................................................   ",
" ++++X...........................................................................................   ",
" ++++X...........................................................................................   ",
" ++++X...........................................................................................   ",
" ++++X...........................................................................................   ",
" ++++X...........................................................................................   ",
" ++++X...........................................................................................   ",
" ++++X...........................................................................................   ",
" ++++X...........................................................................................   ",
" ++++X...........................................................................................   ",
" ++++X...........................................................................................   ",
" ++++X...........................................................................................   ",
" ++++X...........................................................................................   ",
" ++++X...........................................................................................   ",
" ++++X...........................................................................................   ",
" ++++X...........................................................................................   ",
" ++++X...........................................................................................   ",
" ++++X...........................................................................................   ",
" ++++X...........................................................................................   ",
" ++++X...........................................................................................   ",
" ++++X...........................................................................................   ",
" ++++X...........................................................................................   ",
" ++++X...........................................................................................   ",
" ++++X...........................................................................................   ",
" ++++X...........................................................................................   ",
" ++++X...........................................................................................   ",
" ++++X...........................................................................................   ",
" ++++X...........................................................................................   ",
" ++++X...........................................................................................   ",
" ++++X...........................................................................................   ",
" ++++X...........................................................................................   ",
" ++++X...........................................................................................   ",
" ++++X...........................................................................................   ",
" ++++X...........................................................................................   ",
" ++++X...........................................................................................   ",
" ++++X...........................................................................................   ",
" ++++X...........................................................................................   ",
" ++++X...........................................................................................   ",
" ++++X...........................................................................................   ",
" ++++X...........................................................................................   ",
" ++++X...........................................................................................   ",
" ++++X...........................................................................................   ",
" ++++X...........................................................................................   ",
" ++++X...........................................................................................   ",
" ++++X...........................................................................................   ",
" ++++X...........................................................................................   ",
" ++++X...........................................................................................   ",
" ++++X...........................................................................................   ",
" ++++X...........................................................................................   ",
" ++++X...........................................................................................   ",
" ++++X...........................................................................................   ",
" ++++X...........................................................................................   ",
" ++++X...........................................................................................   ",
" ++++X...........................................................................................   ",
" ++++X...........................................................................................   ",
" ++++X...........................................................................................   ",
" ++++X...........................................................................................   ",
" ++++X...........................................................................................   ",
" ++++X...........................................................................................   ",
" ++++X...........................................................................................   ",
" ++++X...........................................................................................   ",
" ++++X...........................................................................................   ",
" ++++X...........................................................................................   ",
" ++++X...........................................................................................   ",
" ++++X...........................................................................................   ",
" ++++X...........................................................................................   ",
" ++++X...........................................................................................   ",
" ++++X...........................................................................................   ",
" ++++X...........................................................................................   ",
" ++++X...........................................................................................   ",
" ++++X...........................................................................................   ",
" ++++X...........................................................................................   ",
" ++++X...........................................................................................   ",
" ++++X...........................................................................................   ",
" ++++X...........................................................................................   ",
" ++++X...........................................................................................   ",
" ++++X...........................................................................................   ",
" ++++X...........................................................................................   ",
" ++++o...........................................................................................   ",
" ++++                                                                                               ",
" ++++                                                                                               ",
"                                                                                                    "
};
